<svg xmlns="http://www.w3.org/2000/svg" width="640" height="400" data-background-color="#ffffff"><path fill="#fff" d="M0 0h640v400H0z" data-fill-palette-color="background"/><svg width="395.52" height="247.2" transform="translate(122.24 76.4)" viewBox="0 0 395.52 247.2"><svg/><svg width="395.52" height="247.2" viewBox="0 0 395.52 247.2"><svg width="244.431" height="69.025" transform="translate(75.544 89.088)" viewBox="0 0 244.431 69.025"><svg width="244.431" height="69.025" viewBox="0 0 244.431 69.025"><svg width="244.431" height="69.025" viewBox="0 0 244.431 69.025"><svg width="244.431" height="69.025" viewBox="0 0 244.431 69.025"><svg width="244.431" height="69.025" viewBox="0 0 244.431 69.025"><svg width="244.431" height="69.025" viewBox="0 0 244.431 69.025"><svg width="244.431" height="69.025" data-palette-color="#ff4020" viewBox="3.9 -35.9 128.89 36.4"><path fill="#ff4020" d="M7.65 0H3.9v-35.9h3.75V0ZM18.9-20.3V0h-3.75v-25h3.7v1.75q4.05-2.25 7.75-2.25 5 0 6.72 2.7 1.73 2.7 1.73 9.6V0h-3.7v-13.1q0-5.2-1.03-7.13-1.02-1.92-4.37-1.92-1.6 0-3.38.47-1.77.48-2.72.93l-.95.45Zm28.45 7.8L39.5-25h4.1l6.1 9.8 6.1-9.8h4.1l-7.95 12.4L59.85 0h-4.1L49.7-9.75 43.6 0h-4.1l7.85-12.5ZM68.34 0h-3.75v-25h3.75V0Zm0-30.65h-3.75V-35h3.75v4.35Zm18.25 5.15q5.05 0 7.08 2.87 2.02 2.88 2.02 10.08T93.17-2.43Q90.64.5 83.89.5q-2.1 0-6.95-.4l-1.4-.15V-35.9h3.7v12.15q3.8-1.75 7.35-1.75ZM83.84-2.85q4.9 0 6.48-2.23 1.57-2.22 1.57-7.52 0-5.3-1.25-7.43-1.25-2.12-4.45-2.12-2.9 0-5.95 1.1l-1 .35v17.6q3.25.25 4.6.25ZM105.89 0h-3.75v-35.9h3.75V0Zm24.5-3.1 1.45-.15.1 2.95q-5.7.8-9.75.8-5.4 0-7.65-3.13-2.25-3.12-2.25-9.72 0-13.15 10.45-13.15 5.05 0 7.55 2.82 2.5 2.83 2.5 8.88l-.2 2.85h-16.5q0 4.15 1.5 6.15t5.22 2q3.73 0 7.58-.3Zm-14.35-10.85h13q0-4.6-1.48-6.5-1.47-1.9-4.8-1.9-3.32 0-5 2-1.67 2-1.72 6.4Z" class="undefined-text-0" data-fill-palette-color="primary"/></svg></svg></svg></svg></svg></svg></svg><path fill="#ff4020" stroke="transparent" d="M190.436 83.088V25.993H385.65v195.214H190.436v-57.095h6.225v50.871h182.765V32.217H196.661v50.871Z" data-fill-palette-color="primary"/></svg></svg></svg>